<svg xmlns="http://www.w3.org/2000/svg" width="47.752" height="60.224" viewBox="0 0 47.752 60.224">
  <g id="file" transform="translate(-42.05)">
    <g id="Grupo_7" data-name="Grupo 7" transform="translate(42.05 0)">
      <path id="Trazado_11" data-name="Trazado 11" d="M80.308,10.2l.46.46-.311.311V24.11a2.307,2.307,0,0,0,2.313,2.313H95.924l.341-.341.43.43V61.23a6.19,6.19,0,0,1-6.184,6.184H58.034A6.19,6.19,0,0,1,51.85,61.23V16.384A6.19,6.19,0,0,1,58.034,10.2Zm7.341,42.992L81.777,45.3l-4.4,5.1-.03.015L69.557,39.43l-10.2,13.762h28.3Zm-6.57-17.87A3.174,3.174,0,1,0,77.906,38.5,3.177,3.177,0,0,0,81.08,35.322Z" transform="translate(-50.397 -8.687)" fill="none"/>
      <g id="Grupo_6" data-name="Grupo 6" transform="translate(8.957 1.972)">
        <path id="Trazado_12" data-name="Trazado 12" d="M260.644,28.723l-.341.341H247.163a2.307,2.307,0,0,1-2.313-2.313V13.611l.311-.311Z" transform="translate(-223.732 -13.3)" fill="none"/>
        <path id="Trazado_13" data-name="Trazado 13" d="M228.184,246.9l5.873,7.889h-8.349l-1.958-2.773.03-.015Z" transform="translate(-205.761 -212.257)" fill="none"/>
        <circle id="Elipse_1" data-name="Elipse 1" cx="3.174" cy="3.174" r="3.174" transform="translate(15.379 21.488)" fill="none"/>
        <path id="Trazado_14" data-name="Trazado 14" d="M120.439,218.289l1.958,2.773H102.45l10.2-13.762Z" transform="translate(-102.45 -178.53)" fill="none"/>
      </g>
      <path id="Trazado_15" data-name="Trazado 15" d="M93.862,213.943h28.31a1.465,1.465,0,0,0,1.32-.816,1.512,1.512,0,0,0-.133-1.557l-5.873-7.889a1.482,1.482,0,0,0-2.313-.074l-3.188,3.693-6.7-9.461a1.49,1.49,0,0,0-1.2-.638h-.015a1.5,1.5,0,0,0-1.186.608L92.66,211.57a1.478,1.478,0,0,0-.133,1.557A1.515,1.515,0,0,0,93.862,213.943Zm22.334-7,3.01,4.034h-4.627l-.845-1.186Zm-12.16-5.724,6.6,9.328.3.43H96.8Z" transform="translate(-84.904 -167.956)" fill="#fff"/>
      <path id="Trazado_16" data-name="Trazado 16" d="M200.807,157.513a4.657,4.657,0,1,0-4.657-4.657A4.665,4.665,0,0,0,200.807,157.513Zm0-6.332a1.691,1.691,0,1,1-1.691,1.691A1.69,1.69,0,0,1,200.807,151.181Z" transform="translate(-173.297 -126.222)" fill="#fff"/>
      <path id="Trazado_17" data-name="Trazado 17" d="M49.687,60.224H82.165A7.665,7.665,0,0,0,89.8,52.542V17.825a1.518,1.518,0,0,0-.415-1.053l-.415-.43L73.474.919l-.46-.475A1.482,1.482,0,0,0,71.962,0H49.687A7.687,7.687,0,0,0,42.05,7.7V52.542A7.665,7.665,0,0,0,49.687,60.224ZM73.638,5.235,84.686,16.328H74.438a.862.862,0,0,1-.8-.9V5.235ZM45.016,7.7a4.69,4.69,0,0,1,4.671-4.716H70.672V15.423a3.833,3.833,0,0,0,3.767,3.871h12.4V52.542a4.69,4.69,0,0,1-4.671,4.716H49.687a4.69,4.69,0,0,1-4.671-4.716Z" transform="translate(-42.05 0)" fill="#fff"/>
    </g>
  </g>
</svg>
