<svg xmlns="http://www.w3.org/2000/svg" width="201.511" height="26.928" viewBox="0 0 201.511 26.928">
  <g id="Grupo_4" data-name="Grupo 4" transform="translate(-181.552 -126.574)">
    <g id="Grupo_2" data-name="Grupo 2" transform="translate(177.852 122.874)">
      <path id="Trazado_1" data-name="Trazado 1" d="M187,149.559a6.036,6.036,0,1,1,0-12.072h7.982v-4.964a9.833,9.833,0,0,1,19.666,0v7.3h3.894a4.868,4.868,0,0,1,0,9.736Z" transform="translate(-177.268 -118.99)" fill="#acdbe6"/>
      <rect id="Rectángulo_1" data-name="Rectángulo 1" width="2.142" height="2.142" transform="translate(28.135 22.391)" fill="#4bae9b"/>
      <rect id="Rectángulo_2" data-name="Rectángulo 2" width="2.142" height="2.142" transform="translate(23.851 22.391)" fill="#4bae9b"/>
      <rect id="Rectángulo_3" data-name="Rectángulo 3" width="2.142" height="2.142" transform="translate(19.568 22.391)" fill="#4bae9b"/>
    </g>
    <g id="Grupo_3" data-name="Grupo 3" transform="translate(233.68 126.574)">
      <path id="Trazado_3" data-name="Trazado 3" d="M224.874,127.017h11.791a16.507,16.507,0,0,1,7.266,1.532,11.54,11.54,0,0,1,4.914,4.345,13.312,13.312,0,0,1,0,13.179,11.54,11.54,0,0,1-4.914,4.345,16.507,16.507,0,0,1-7.266,1.532H224.874Zm11.5,19.305a7.227,7.227,0,0,0,5.147-1.817,7.467,7.467,0,0,0,0-10.044,7.227,7.227,0,0,0-5.147-1.817h-4.452v13.678Z" transform="translate(-224.874 -125.521)" fill="#4bae9b"/>
      <path id="Trazado_4" data-name="Trazado 4" d="M249.055,137.277h10.4v5.2h-10.4Z" transform="translate(-220.345 -123.599)" fill="#161615"/>
      <path id="Trazado_5" data-name="Trazado 5" d="M267.011,150.871a12.385,12.385,0,0,1-4.9-4.613,13.479,13.479,0,0,1,0-13.393,12.385,12.385,0,0,1,4.9-4.613,14.76,14.76,0,0,1,7.036-1.656,15.094,15.094,0,0,1,6.161,1.211,11.847,11.847,0,0,1,4.559,3.491l-4.487,4.061a7.385,7.385,0,0,0-5.877-2.921,7.25,7.25,0,0,0-3.615.89,6.183,6.183,0,0,0-2.459,2.511,8.374,8.374,0,0,0,0,7.444,6.183,6.183,0,0,0,2.459,2.511,7.25,7.25,0,0,0,3.615.89,7.385,7.385,0,0,0,5.877-2.921l4.487,4.061a11.847,11.847,0,0,1-4.559,3.491,15.094,15.094,0,0,1-6.161,1.211A14.76,14.76,0,0,1,267.011,150.871Z" transform="translate(-218.233 -125.6)" fill="#acdbe6"/>
      <path id="Trazado_6" data-name="Trazado 6" d="M283.283,125.757h6.768v26.429h-6.768Z" transform="translate(-213.935 -125.757)" fill="#acdbe6"/>
      <path id="Trazado_7" data-name="Trazado 7" d="M296.96,150.151a9.546,9.546,0,0,1-5.308-8.727,9.519,9.519,0,0,1,5.289-8.673,13.119,13.119,0,0,1,11.239,0,9.48,9.48,0,0,1,3.882,3.526,9.775,9.775,0,0,1-3.882,13.873,12.913,12.913,0,0,1-11.22,0Zm8.513-5.325a4.81,4.81,0,0,0,1.14-3.4,4.691,4.691,0,0,0-1.14-3.348,4.128,4.128,0,0,0-5.841,0,4.686,4.686,0,0,0-1.14,3.348,4.8,4.8,0,0,0,1.14,3.4,4.085,4.085,0,0,0,5.841,0Z" transform="translate(-212.367 -124.684)" fill="#acdbe6"/>
      <path id="Trazado_8" data-name="Trazado 8" d="M332.966,131.757v19.305h-6.447V149a6.926,6.926,0,0,1-2.565,1.781,8.368,8.368,0,0,1-3.17.606,8.1,8.1,0,0,1-5.966-2.208q-2.226-2.208-2.226-6.625V131.757h6.768v9.688a4.964,4.964,0,0,0,.819,3.17,2.91,2.91,0,0,0,2.386,1,3.367,3.367,0,0,0,2.618-1.122,4.989,4.989,0,0,0,1.016-3.437v-9.3Z" transform="translate(-208.446 -124.633)" fill="#acdbe6"/>
      <path id="Trazado_9" data-name="Trazado 9" d="M354.1,125.757v26.429h-6.447v-1.923a6.985,6.985,0,0,1-5.663,2.244,9.6,9.6,0,0,1-4.809-1.229,8.886,8.886,0,0,1-3.437-3.508,11.584,11.584,0,0,1,0-10.525,8.793,8.793,0,0,1,3.437-3.473,9.721,9.721,0,0,1,4.809-1.211,7,7,0,0,1,5.343,1.995v-8.8ZM346.3,145.9a4.81,4.81,0,0,0,1.14-3.4,4.737,4.737,0,0,0-1.122-3.348,3.779,3.779,0,0,0-2.9-1.211,3.831,3.831,0,0,0-2.921,1.211,4.691,4.691,0,0,0-1.14,3.348,4.81,4.81,0,0,0,1.14,3.4,4.043,4.043,0,0,0,5.806,0Z" transform="translate(-204.721 -125.757)" fill="#acdbe6"/>
    </g>
  </g>
</svg>
